<svg width="100" height="94" viewBox="0 0 100 94" fill="none" xmlns="http://www.w3.org/2000/svg">
<path d="M77.6436 0.119141H22.391C10.1857 0.119141 0.289917 9.42931 0.289917 20.9124V72.8955C0.289917 84.3785 10.1857 93.6887 22.391 93.6887H53.4485V57.5033H40.5028V43.3379H53.4485V32.9153C53.4485 20.8344 61.2998 14.2481 72.7592 14.2481C76.6214 14.2377 80.478 14.4249 84.3181 14.794V27.4259H76.428C70.1845 27.4259 68.9689 30.2018 68.9689 34.298V43.3171H83.8871L81.9477 57.4825H68.8805V93.6887H77.6436C89.8489 93.6887 99.7446 84.3785 99.7446 72.8955V20.9124C99.7446 9.42931 89.8489 0.119141 77.6436 0.119141Z" fill="white"/>
</svg>
