<svg width="107" height="100" viewBox="0 0 107 100" fill="none" xmlns="http://www.w3.org/2000/svg">
<path d="M30.9328 0C13.8752 0 0 13.0663 0 29.1187V70.7051C0 86.7533 13.8881 99.8075 30.9501 99.8075H75.1522C92.2098 99.8075 106.085 86.7413 106.085 70.6889V29.1024C106.085 13.0542 92.1969 0 75.1349 0H30.9328ZM83.984 16.6346C86.4239 16.6346 88.4042 18.4977 88.4042 20.7932C88.4042 23.0888 86.4239 24.9519 83.984 24.9519C81.544 24.9519 79.5638 23.0888 79.5638 20.7932C79.5638 18.4977 81.544 16.6346 83.984 16.6346ZM53.0425 24.9519C67.669 24.9519 79.5638 36.1428 79.5638 49.9038C79.5638 63.6647 67.669 74.8556 53.0425 74.8556C38.416 74.8556 26.5213 63.6647 26.5213 49.9038C26.5213 36.1428 38.416 24.9519 53.0425 24.9519ZM53.0425 33.2692C48.3533 33.2692 43.8561 35.0217 40.5403 38.1413C37.2245 41.2609 35.3617 45.492 35.3617 49.9038C35.3617 54.3155 37.2245 58.5466 40.5403 61.6662C43.8561 64.7858 48.3533 66.5384 53.0425 66.5384C57.7318 66.5384 62.2289 64.7858 65.5447 61.6662C68.8605 58.5466 70.7233 54.3155 70.7233 49.9038C70.7233 45.492 68.8605 41.2609 65.5447 38.1413C62.2289 35.0217 57.7318 33.2692 53.0425 33.2692Z" fill="white"/>
</svg>
