<svg width="101" height="94" viewBox="0 0 101 94" fill="none" xmlns="http://www.w3.org/2000/svg">
<path d="M16.1113 0.119141C7.76882 0.119141 0.91687 6.56563 0.91687 14.4145V79.3934C0.91687 87.2422 7.76882 93.6887 16.1113 93.6887H85.1771C93.5196 93.6887 100.372 87.2422 100.372 79.3934V14.4145C100.372 6.56563 93.5196 0.119141 85.1771 0.119141H16.1113ZM60.3134 13.1149C62.6064 13.1149 64.4574 14.8563 64.4574 17.0136C64.4574 24.8891 71.2811 31.309 79.6518 31.309C81.9448 31.309 83.7958 33.0504 83.7958 35.2077C83.7958 37.365 81.9448 39.1065 79.6518 39.1065C73.8503 39.1065 68.5461 37.1323 64.4574 33.8574V59.8997C64.4574 71.362 54.5395 80.6929 42.3563 80.6929C30.1731 80.6929 20.2553 71.362 20.2553 59.8997C20.2553 48.4374 30.1731 39.1065 42.3563 39.1065C42.9365 39.1065 43.5143 39.1312 44.0668 39.1572C46.3598 39.3392 48.075 41.214 47.8816 43.3453C47.7158 45.5026 45.7285 47.1106 43.4355 46.9547C43.0763 46.9287 42.7155 46.9039 42.3563 46.9039C34.7315 46.9039 28.5432 52.726 28.5432 59.8997C28.5432 67.0734 34.7315 72.8955 42.3563 72.8955C49.9812 72.8955 56.1695 67.0734 56.1695 59.8997V17.0136C56.1695 14.8563 58.0204 13.1149 60.3134 13.1149Z" fill="white"/>
</svg>
