<svg xmlns="http://www.w3.org/2000/svg" id="Camada_2" data-name="Camada 2" viewBox="0 0 3613.78 2103.64"><defs><style>.cls-1{fill:#fff}.cls-2{fill:#a7e923}.cls-3{fill:#00f9fe}</style></defs><g id="Camada_1-2" data-name="Camada 1"><path d="M2603.19 1483.98c27.4 49.29 71.48 59.1 119.86 57.65 46.8-1.4 89.01-17.1 126.81-45.18 32.1-23.85 43.62-23.64 61.98-1.6 30.58 36.71 32.2 65.13 4.57 90.3-47.53 43.29-104.58 66.46-167.54 73.15-66.17 7.04-131.84 2.68-189.9-34.41-24.8-15.84-45.98-37.35-69.55-56.9-17.56 15.38-36.99 34.08-58.13 50.59-49.12 38.37-104.74 56.25-167.59 50.99-56.58-4.73-99.46-42.18-103.73-103.45-4.99-71.68-2.03-143.91-2.77-215.9-.36-34.88.45-69.9-2.51-104.58-2.29-26.84-18.09-37.1-44.64-39.26-42.94-3.51-75.44 17.19-105.41 43.53-4.73 4.16-6.33 13.83-6.44 21-1.74 107.06-3.21 214.12-4.28 321.18-.65 64.75-56.12 97.84-112.77 65.1-11.48-6.63-19.35-21.9-25.39-34.81-4.84-10.35-4.4-23.17-6.01-33.16-35.07 16.34-68.54 35.97-104.55 47.87-78.14 25.82-157.47 31.9-235.86-1.34-35.62-15.1-63.91-39.52-87.85-71.97-53.81 61.04-116.78 102.5-200.07 106.08-83.94 3.61-150.73-24.01-189.45-98.02-35.04 25.39-68.09 52.32-104.05 74.56-38.97 24.1-83.85 27.9-128.44 22.17-55.39-7.12-84.29-44.84-96.73-95.48-7.24-29.49-12.34-60.35-12.43-90.61-.31-112.76.42-225.57 3.7-338.28 1.55-53.13 17.68-68.36 80.95-67.34 45.56.74 62 16.92 62 62.16 0 107.81-.06 215.62-.08 323.43 0 8.57.06 17.14.19 25.7.84 56.53 27.03 73.48 73.73 41.89 29.97-20.27 55.77-48.85 77.46-78.13 8.55-11.54.61-35.12.55-53.22-.26-80.51-2.72-161.11.25-241.51 2.02-54.56 9.84-109.13 18.56-163.13 7.42-45.95 22.46-90.06 55.21-125.38 69.32-74.79 188.5-47.92 219.81 48.78 15.29 47.24 14.62 95.66 12.8 143.98-3.17 84.04-17.32 166.61-60 239.98-27.02 46.45-62.26 88.25-95.22 131.05-8.14 10.56-14.4 18.59-7.89 31.81 2.46 5 2.81 10.99 4.66 16.35 24.29 70.32 64.27 75.49 122.13 65.36 48.79-8.54 83.41-42.09 111.23-81.25 5.5-7.74 4.46-21.68 3.22-32.39-9.87-85.41-2.72-168.49 39.14-244.93 45.45-82.98 115.26-126.17 212.22-118.85 76.56 5.78 126.18 70.89 122.07 155.16-4.72 96.73-56.35 163.36-132.56 214.94-24.71 16.73-51.38 30.57-78.86 46.74 19.06 33.46 50.68 47 87.7 48.94 84.42 4.41 155.75-28.06 218.11-82.24 6.78-5.89 10.47-18.59 10.69-28.24 1.76-76.36 2.15-152.75 3.36-229.12.39-24.95 1.19-49.95 3.18-74.82 2.53-31.76 16.03-45.59 47.22-50.8 3.5-.58 7.1-.66 10.66-.81 72.17-2.92 81.63 5.31 87.24 77.73 30.9-28.14 62.54-54.71 103.27-62.37 28.24-5.31 58.55-8.26 86.65-3.94 66.76 10.27 108.46 64.76 108.33 138.24-.16 91.34-2.39 182.68-3.66 274.02-.09 6.42-.37 12.94.6 19.24 4.19 27.25 18.92 37.2 45.22 28.75 44.35-14.24 73.49-47.83 100.01-83.51 4.01-5.4 1.28-16.45.39-24.76-10.59-98.42 1.16-192.12 59.32-275.55 50.26-72.1 146.5-106.45 224.48-81.08 62.8 20.44 96.97 75.43 94.01 146.04-4.66 111.1-70.69 179.17-159.26 231.99-18.84 11.24-38.77 20.66-59.91 31.82Zm-1482.06-194.82c4.77-8.16 7.7-12.67 10.13-17.43 42.43-83.26 55.64-172.63 54.7-264.8-.14-13.45-1.88-27.27-5.53-40.16-1.98-6.99-9.39-17.14-14.68-17.34-7.18-.27-17.45 5.93-21.37 12.4-6.04 9.99-9.69 22.34-11.07 34.07-4.82 40.97-10.22 82.04-11.69 123.21-1.97 55.18-.49 110.48-.49 170.05Zm1460.09 87.82c2.33 1.6 4.65 3.2 6.98 4.79 24.56-20.18 51.15-38.39 73.18-61.04 29-29.81 43-66.54 33.6-109.31-3.59-16.36-13.69-23.53-30.38-23.67-27.01-.23-43.84 14.87-55.58 36.63-25.87 47.95-26.84 100.33-27.8 152.6Zm-1071.12 3.92c35.87-20.71 67.64-40.47 87.79-71.92 13.37-20.86 22.21-45.61 28.28-69.82 4.25-16.94.54-36.75-18.08-46.44-18.38-9.57-36.19-4.44-51.3 8.48-6.91 5.91-13.33 13.16-17.79 21.03-27.37 48.26-28.02 101.26-28.89 158.67Z" class="cls-1"/><path d="M3195.1 607.01c40.93 10.51 82.38 20.14 123.22 31.88 56.22 16.16 110 38.43 158.88 71.15 80.18 53.68 125.76 129.21 134.47 224.73 8.36 91.7-7.39 178.94-61.97 256.08-50.88 71.91-121.4 113.68-205.5 135.54-84.18 21.89-168.31 20.86-251.46-2.28-95.49-26.57-171.39-82.31-225.24-165.75-28.18-43.68-19.76-83.6 20.51-116.76 8.21-6.76 16.56-13.47 25.46-19.25 42.26-27.42 65.82-22.25 100.11 14.5 28.9 30.98 58.36 63.26 93.24 86.44 62.53 41.58 132.89 44.18 202.65 18.71 57.54-21.02 90.33-87.35 87.17-155.03-4.54-97.16-63.46-147.89-147.21-174.1-69.61-21.78-141.53-36.49-212.89-52.24-46.45-10.25-74.71-41.29-62.31-91.66 25.3-102.81 45.86-206.79 67.89-308.04-2.76-3.94-3.43-5.97-4.38-6.11-39.02-5.73-53.16-32.08-54.73-67.56-.98-22.03-1.83-44.45 1.07-66.18 3.81-28.51 21.28-43.3 51.21-44.33 65.59-2.26 131.23-3.23 196.86-4.39 103.45-1.84 206.91-2.72 310.34-5.35 57.01-1.45 63.87 28.38 69.29 67.33 2.93 21.02 1.61 42.79.68 64.15-1.31 29.95-20.26 49.06-50.47 50.05-98.4 3.21-196.82 6.19-295.26 7.94-17.79.32-24.33 5.17-27.55 22.98-13.63 75.57-29.06 150.81-44.09 227.52Z" class="cls-2"/><path d="M2595.94 272.99c-48.23 24.62-93.68 48.05-139.38 70.99-10.1 5.07-20.75 9.7-31.68 12.32-38.17 9.15-61.38-1.98-78.22-37.76-6.63-14.09-11.8-29.04-16.11-44.03-8.37-29.12-2.12-48.03 23.93-64.13 51.97-32.13 104.94-62.63 157.27-94.17 26.19-15.78 52.14-31.99 77.62-48.89 5.87-3.9 11.63-10.76 13.51-17.38 7.86-27.59 25.56-47.37 53.07-48.98 39.91-2.34 80.37-.11 120.25 3.79 19.52 1.91 28.63 20.15 31.39 38.88 2.28 15.47 3.48 31.25 3.39 46.88-1.2 219.14-2.46 438.28-4.57 657.41-.19 19.63 6.45 24.27 24.56 23.83 37.09-.91 74.24-.49 111.33.6 40.63 1.2 59.63 20.04 61.98 60.88 1.15 19.92.97 39.97.32 59.92-1.15 35.3-20.99 54.66-56.89 55.26-44.25.74-88.51.62-132.76.97-133.48 1.06-266.96 2.27-400.44 3.22-47.31.34-65.93-14.52-71.3-60.72-2.6-22.34-2.21-45.68 1.18-67.9 4.66-30.51 22.11-44.54 66.26-47.17 54.11-3.22 108.43-3.35 162.67-3.91 14.66-.15 20.14-5.06 20.24-19.89.97-154.16 2.43-308.33 3.66-462.49.04-5.48-.78-10.96-1.28-17.54Z" class="cls-2"/><path d="M319.73 1539.33c22.38-49.11 43.7-93.12 62.67-138.12 39.35-93.38 69.15-189.81 82.75-290.42 4.25-31.44 3.62-63.94 1.29-95.67-.79-10.74-13.24-28.61-21.11-29.02-12.32-.64-31.08 7.6-36.66 17.8-9.83 17.96-15.86 40.19-16.12 60.72-.45 35.4 3.6 71.01 7.88 106.28 4.74 39.07-2.8 51.98-41.71 63.02-40.5 11.49-61.1 1.02-73.07-39.13-21.92-73.55-25.4-146.98 4.42-219.61 38.81-94.53 140.74-127.13 223.22-102.47 57.36 17.15 79.2 63.96 88.12 118.09 11.7 71.03-.27 140.6-16.7 209.5-33.08 138.72-86.82 268.67-158.4 392.41-36.78 63.58-87.86 79.84-153.99 72.04-22.81-2.69-39.19-15.7-52.14-33.8-55.59-77.66-96.67-162.76-128.67-252.41-39.88-111.71-64.66-226.93-79.04-344.51-3.71-30.36-6.75-60.82-11.18-91.07-6.35-43.39 10.57-67 54.5-72.01 16.92-1.93 34.22-1.78 51.27-.93 30.7 1.52 43.69 12.89 47.78 43.94 5.57 42.33 9.23 84.92 13.92 127.37 19.1 172.79 62.05 338.44 150.97 498.01Z" class="cls-1"/><path d="M454.94 1875.03c0 48.99-.03 92.88.01 136.76.01 15.71.5 31.42.23 47.12-.44 26.01-8.64 33.41-35.93 33.25-29.83-.17-37.76-6.97-37.79-33.36-.12-89.96-.14-179.92-.05-269.88.02-22.18 8.79-28.97 31-31.76 38.18-4.79 62.69 9.44 80.98 43.76 28.12 52.76 60.12 103.47 90.69 154.92 4.31 7.26 9.78 13.83 18.63 20.33-.33-6.43-.9-12.86-.94-19.3-.34-55.69-.87-111.37-.72-167.06.07-24.33 9.31-32.26 34.96-32.41 29.11-.17 38.28 6.1 38.42 30.47.55 91.37.5 182.75.07 274.13-.11 23.29-8.58 28.19-31.68 30.78-36.78 4.12-60.47-10.72-78.34-42.11-28.52-50.08-59.11-99-89.12-148.23-5.03-8.26-11.56-15.61-20.43-27.4ZM1301.08 1915.83c54.14 33.55 68.74 66.04 54.22 114.09-9.93 32.85-33.02 53.94-65.16 57.1-50.22 4.93-101.04 4.36-151.62 4.69-17.59.11-24.39-14.05-24.42-29.5-.2-92.78-.23-185.56 1.31-278.31.14-8.4 11.85-23.82 18.11-23.78 52.41.33 105.32-.16 157.02 7.12 35.37 4.98 55.55 34.45 58.77 70.2 3.17 35.25-13.8 61.51-48.22 78.4Zm-112.07 118.6c23.21 0 44 1.72 64.37-.48 20.37-2.2 33.29-15.28 35.92-36.5 2.47-19.92-4.95-38.53-23.17-43.59-24.42-6.78-50.81-6.45-77.11-9.26v89.82Zm-.17-137.9c23.2-2.29 44.46-2.54 64.8-6.98 17-3.71 27.48-16.05 28.27-35.32.79-19.49-2.91-37.56-23.59-42.51-22.13-5.29-45.38-5.86-69.47-8.65v93.46ZM731.57 1928.6c-.29-37.84 6.31-73.8 26.28-106.51 22.52-36.88 56.68-57.65 97.9-65.39 69.72-13.08 143.39 3.74 182.05 73.89 41.94 76.12 22.8 191.39-41.27 237.42-76.62 55.05-235.03 39.83-261.06-94.84-2.82-14.57-2.67-29.71-3.91-44.58Zm256.67 4.69c-3.01-21.6-4.13-37.98-7.73-53.8-8.99-39.49-42.37-67.39-81.63-69.64-37.34-2.14-67.79 18.58-83.31 57.29-14.89 37.14-14.5 75.18-3.24 112.84 9.93 33.22 44.36 57.82 80.65 60.24 33.5 2.23 66.46-17.96 80.36-52.37 7.56-18.73 10.83-39.19 14.9-54.55ZM1598.65 1965.94c20.43 26.67 40.09 52.7 60.15 78.41 18.07 23.17 19.26 32.9 4.57 45.86-21.07 18.59-39.21 18.31-57.19-3.53-20.31-24.67-41.91-49.12-57.2-76.84-13.57-24.6-30.47-28.11-57.05-22.14 0 23.29.14 47.31-.04 71.32-.19 24.9-9.27 33.13-35.95 33.09-29.67-.04-37.54-6.87-37.56-33.3-.04-89.94.39-179.87-.19-269.81-.14-21.03 9.63-31.31 29.07-31.13 43.42.42 87.19-.73 130.13 4.46 42.58 5.15 73.76 30.69 85.12 73.51 10.99 41.39-1.54 77.36-33.41 106.09-8.42 7.59-17.83 14.09-30.48 23.99Zm-106.59-151.67c0 25.65-.27 48.3.06 70.93.68 47.21 5.13 50.66 52.39 41.87 1.4-.26 2.78-.6 4.18-.89 27.99-5.83 46.75-30.35 44.95-58.77-1.93-30.51-20.92-50.85-50.87-52.95-15.51-1.09-31.16-.19-50.71-.19ZM1805.87 1814.01v80.75c30.13 0 59.15-.31 88.16.12 17.28.26 31.15 5.33 30.96 26.7-.17 19.75-8.35 29.01-28.34 29.29-29.79.43-59.58.11-90.66.11v85.04c37.85 0 74.74-.08 111.63.03 25.44.07 33.31 6.89 33.06 28.08-.25 20.93-8.5 27.94-33.53 28.01-49.96.14-99.91.27-149.87.14-28.1-.07-36.38-8.07-36.36-35.38.08-87.78.29-175.55.72-263.33.14-29.23 6.45-35.78 34.79-35.94 49.24-.28 98.49-.15 147.73.13 23.35.13 31.71 7.86 31.55 27.78-.16 19.47-9.8 28.33-31.51 28.42-35.54.13-71.08.04-108.35.04Z" class="cls-2"/><path d="M769.08 1008.85c-50.23-.17-79.59-31.72-79-84.89.57-51.05 33.92-84.28 84.48-84.17 47.64.11 79.8 38.01 79.65 93.86-.12 44.41-35.16 75.37-85.12 75.2Z" class="cls-1"/><path d="M1587.19 912.55c-.43 7.74 1.06 16.32-1.88 22.94-2.46 5.53-9.8 11.48-15.54 12.1-4.25.46-13.35-7.19-13.51-11.48-1.21-32.76-1.38-65.61-.14-98.37.19-5.01 8.67-12.37 14.53-13.88 9.39-2.41 19.81-1.07 29.79-.9 19.58.32 37.18 5.11 45.6 25.12 8.48 20.16.08 35.8-15.03 49.13-1.52 1.34-2.51 3.29-4.45 5.9 6.32 8.5 13.88 16.36 18.45 25.68 2.69 5.49.64 13.31.72 20.09-6.94-.86-15.6.54-20.43-3.11-7.71-5.83-12.68-15.18-19.17-22.73-4.17-4.86-9-9.15-13.53-13.7-1.81 1.07-3.61 2.14-5.42 3.21Zm.26-70.59v49.5c12.25-5.77 22.72-8.07 28.78-14.52 3.73-3.97 3.78-17.23.06-21.06-6.17-6.35-16.7-8.47-28.84-13.92ZM2178.3 814.86c12.28 11.16 23.89 16.86 27.38 25.75 11.68 29.72 21.05 60.41 29.76 91.17 1.44 5.08-4.93 12.36-7.69 18.62-6.87-3.3-19.15-5.89-19.7-10.03-3.01-22.68-19.55-15.99-32.57-17.35-12.75-1.33-21.05 1.68-25 16.3-1.37 5.1-13.72 7.24-21.05 10.73-2.04-6.43-7.16-13.73-5.62-19.13 8.55-30.01 17.7-59.96 28.95-89.03 3.51-9.07 14.18-15.36 25.56-27.01Zm4.09 40.48c-1.71-.59-3.43-1.19-5.14-1.78-4.74 14.39-9.49 28.78-14.92 45.26h32.5c-4.5-15.72-8.47-29.6-12.44-43.48ZM1476.32 911.4c-.72 9.68.68 18.34-2.46 24.77-2.68 5.48-10.37 11.04-16.27 11.53-4.11.34-12.67-7.71-12.83-12.23-1.14-32.71-1.28-65.49 0-98.18.19-4.9 8.96-12.67 14.59-13.51 13.22-1.97 27.05-1.56 40.45-.28 24.36 2.34 38.89 18.94 38.9 42.54.01 22.12-16.37 40.85-38.85 43.92-6.97.95-14.07.9-23.54 1.44Zm-1.84-63.99c.79 14.49 1.47 27.07 2.14 39.46 20.58 1.32 33.07-3.81 31.29-22.81-1.72-18.31-15.68-18.99-33.43-16.65ZM1703.31 845.77v28.91c9.69 0 18.99-1.42 27.53.53 5.21 1.19 9.23 7.56 13.79 11.6-4.4 3.43-8.39 8.86-13.28 9.85-8.15 1.65-16.87.45-27.21.45v28.62c11.22 0 22.59-1.38 33.37.55 5.85 1.05 10.7 7.74 15.99 11.88-5.05 3.51-9.91 9.65-15.2 10.05-16.97 1.29-34.26 1.76-51.1-.25-5.75-.69-14.77-9.41-15.04-14.83-1.56-31.22-1.7-62.59-.39-93.83.23-5.54 9.07-14.58 14.78-15.29 16.82-2.1 34.13-1.73 51.08-.35 5.3.43 10.08 7.16 15.1 11-4.99 3.7-9.6 9.69-15.06 10.6-10.31 1.71-21.11.49-34.36.49ZM1904.73 898.44v27.53c13.07 0 25.18-1.23 36.82.58 4.94.77 8.88 7.91 13.28 12.16-4.54 3.34-8.91 9.26-13.64 9.56-17.74 1.14-35.75 1.7-53.34-.3-5.62-.64-14.4-9.67-14.67-15.2-1.49-30.58-1.68-61.31-.12-91.88.31-6.16 9.5-16.05 15.63-16.92 16.77-2.39 34.17-1.78 51.15-.37 5.06.42 9.56 7.45 14.31 11.45-5.15 3.56-9.95 9.3-15.52 10.19-10.31 1.66-21.08.47-32.58.47-3.28 16.3-7.6 29.71 16.64 29.32 7.62-.12 15.36 7.48 23.04 11.55-7.87 3.64-15.55 7.87-23.7 10.7-4.45 1.55-9.72.75-17.31 1.15ZM1806.05 845.86v32.96c8.74 0 16.69-1.39 23.83.42 6.34 1.61 11.78 6.77 17.62 10.36-6.09 4.02-11.72 9.54-18.42 11.64-6.38 2-13.88.43-24.28.43 0 11.73 1.89 21.93-.64 30.88-1.77 6.28-9.57 10.86-14.68 16.2-5.22-5.22-14.71-10.26-14.95-15.7-1.37-31.31-1.31-62.75.26-94.05.28-5.53 9.49-14.43 15.37-15.13 16.86-2.02 34.19-1.39 51.21-.1 4.69.36 8.94 6.68 13.39 10.27-4.84 3.94-9.24 10.35-14.6 11.3-10.27 1.82-21.09.53-34.1.53ZM2050.8 851.17c-8.74-5.81-25.3-12.39-24.82-17.3 1.74-17.86 18.57-9.73 29.25-10.62 15.58-1.3 31.49-1.42 46.98.37 6.44.75 12.16 7.73 18.21 11.87-5.88 3.48-11.52 7.51-17.73 10.23-3.6 1.57-8.12 1.04-14.86 1.72 0 26.91-.01 53.12 0 79.33 0 11.19.09 22.23-15.91 21.95-14.65-.25-14.75-10.4-14.74-20.88.03-26.27.01-52.53.01-78.8-2.13.7-4.27 1.41-6.4 2.11ZM1979.78 883.89c0-14.9-1.44-30.02.7-44.6.87-5.94 9.53-10.74 14.64-16.05 4.95 5.35 13.94 10.52 14.19 16.08 1.4 31.16 1.42 62.45.03 93.61-.25 5.49-9.45 10.58-14.52 15.85-5.1-5.31-13.87-10.15-14.61-16-2.04-16.06-.7-32.55-.7-48.88h.28Z" class="cls-3"/></g></svg>